<svg width="205" height="51" viewBox="0 0 205 51" fill="none" xmlns="http://www.w3.org/2000/svg">
<path d="M46.4925 32.7101C44.8434 32.7101 43.3813 32.3583 42.1061 31.6547C40.8308 30.9401 39.8249 29.9012 39.0884 28.538C38.3628 27.1639 38 25.4874 38 23.5085C38 21.5297 38.3903 19.8367 39.1708 18.4296C39.9623 17.0224 41.0397 15.945 42.4029 15.1975C43.7661 14.4389 45.2997 14.0596 47.0036 14.0596C48.059 14.0596 49.0759 14.1696 50.0543 14.3895C51.0328 14.5983 52.0936 15.0655 53.2369 15.7911L52.1816 18.7264C51.3131 18.1217 50.4336 17.6875 49.5431 17.4236C48.6637 17.1598 47.7842 17.0279 46.9047 17.0279C45.2667 17.0279 43.9585 17.5886 42.98 18.7099C42.0126 19.8312 41.5289 21.3318 41.5289 23.2117C41.5289 25.2125 41.9741 26.7956 42.8646 27.9609C43.7551 29.1152 44.9314 29.6924 46.3935 29.6924C47.1081 29.6924 47.7512 29.6319 48.3229 29.511C48.9055 29.379 49.5541 29.1372 50.2687 28.7854V25.4874H46.377V22.717H53.4183V30.5004C52.0881 31.3908 50.8843 31.9845 49.807 32.2813C48.7406 32.5672 47.6358 32.7101 46.4925 32.7101Z" fill="#5D6A09"/>
<path d="M56.8813 32.4132V24.8113C56.8813 23.602 56.8098 22.5741 56.6669 21.7276C56.535 20.8701 56.4031 20.227 56.2711 19.7982H59.6681C59.7561 20.0621 59.8495 20.4578 59.9485 20.9855C60.0474 21.5132 60.1189 21.9255 60.1628 22.2223C60.7675 21.3538 61.4271 20.6942 62.1417 20.2435C62.8562 19.7817 63.4939 19.5509 64.0545 19.5509C65.2198 19.5509 66.0443 20.0126 66.528 20.9361C67.0228 21.8485 67.2701 22.9369 67.2701 24.2011L64.5162 24.6299C64.4723 24.0692 64.3349 23.6185 64.104 23.2777C63.8731 22.9369 63.4938 22.7665 62.9662 22.7665C62.6913 22.7665 62.378 22.9204 62.0262 23.2282C61.6744 23.525 61.3446 23.9098 61.0368 24.3825C60.729 24.8552 60.4981 25.3499 60.3442 25.8666V32.4132H56.8813Z" fill="#5D6A09"/>
<path d="M72.8933 32.7101C72.0688 32.7101 71.3322 32.5342 70.6836 32.1824C70.046 31.8306 69.5458 31.3634 69.183 30.7807C68.8202 30.1981 68.6388 29.5714 68.6388 28.9008C68.6388 28.2632 68.7817 27.6311 69.0675 27.0045C69.3644 26.3668 69.8701 25.8172 70.5846 25.3554C71.3102 24.8937 72.3106 24.6024 73.5859 24.4815C73.8717 24.4485 74.24 24.4155 74.6907 24.3825C75.1524 24.3495 75.5977 24.322 76.0264 24.3001C76.4551 24.2671 76.752 24.2506 76.9169 24.2506V23.6405C76.9169 23.1787 76.653 22.8434 76.1253 22.6346C75.6087 22.4257 74.8831 22.3212 73.9486 22.3212C73.3 22.3212 72.6459 22.4532 71.9863 22.717C71.3377 22.9808 70.6506 23.3656 69.925 23.8713C69.936 23.5965 69.947 23.1238 69.958 22.4532C69.98 21.7716 70.013 21.1779 70.0569 20.6722C70.7605 20.3974 71.4971 20.1445 72.2666 19.9137C73.0472 19.6718 73.9596 19.5509 75.004 19.5509C76.62 19.5509 77.9173 19.8862 78.8957 20.5568C79.8851 21.2164 80.3798 22.0354 80.3798 23.0138V27.8455C80.3798 28.7359 80.4568 29.5494 80.6107 30.286C80.7756 31.0116 80.99 31.7207 81.2538 32.4132H77.9063C77.8293 32.2373 77.7304 32.001 77.6095 31.7042C77.4885 31.4073 77.3841 31.0885 77.2961 30.7477C76.6036 31.4403 75.878 31.9405 75.1194 32.2483C74.3609 32.5562 73.6188 32.7101 72.8933 32.7101ZM73.8002 29.8902C74.3169 29.8902 74.8171 29.7803 75.3008 29.5604C75.7845 29.3406 76.3232 28.8294 76.9169 28.0268V26.5427C76.675 26.5537 76.2628 26.5867 75.6801 26.6417C75.0975 26.6856 74.6467 26.7296 74.3279 26.7736C73.4704 26.8615 72.8823 27.0649 72.5635 27.3837C72.2556 27.6915 72.1017 28.0488 72.1017 28.4556C72.1017 28.8514 72.2556 29.1922 72.5635 29.478C72.8823 29.7528 73.2945 29.8902 73.8002 29.8902Z" fill="#5D6A09"/>
<path d="M88.7898 32.7101C87.6905 32.7101 86.6736 32.5726 85.7391 32.2978C84.8157 32.012 84.0846 31.6822 83.5459 31.3084L84.222 28.2742C84.8377 28.7799 85.5797 29.1867 86.4482 29.4945C87.3277 29.7913 88.1302 29.9397 88.8558 29.9397C89.4384 29.9397 89.9111 29.8298 90.2739 29.6099C90.6477 29.379 90.8346 29.1207 90.8346 28.8349C90.8346 28.4721 90.6422 28.1533 90.2574 27.8784C89.8837 27.5926 89.1086 27.3233 87.9323 27.0704C86.767 26.8176 85.8765 26.5152 85.2609 26.1635C84.6453 25.8117 84.222 25.4104 83.9912 24.9597C83.7713 24.5089 83.6614 24.0252 83.6614 23.5085C83.6614 23.2117 83.7438 22.8434 83.9087 22.4037C84.0736 21.953 84.354 21.5132 84.7497 21.0845C85.1565 20.6447 85.7062 20.2819 86.3987 19.9961C87.1023 19.6993 87.9818 19.5509 89.0372 19.5509C90.0486 19.5509 90.9226 19.6608 91.6591 19.8807C92.4067 20.0896 93.0168 20.3094 93.4895 20.5403L93.0113 23.4591C92.5496 23.2062 91.9669 22.9479 91.2634 22.684C90.5598 22.4092 89.7792 22.2718 88.9217 22.2718C88.1962 22.2718 87.696 22.3982 87.4211 22.651C87.1463 22.8929 87.0089 23.1403 87.0089 23.3931C87.0089 23.7009 87.1463 23.9428 87.4211 24.1187C87.707 24.2836 88.3941 24.476 89.4824 24.6958C90.3399 24.8607 91.1204 25.0916 91.824 25.3884C92.5386 25.6852 93.1103 26.0865 93.539 26.5922C93.9677 27.0979 94.1821 27.741 94.1821 28.5216C94.1821 29.3131 93.9403 30.0277 93.4565 30.6653C92.9838 31.2919 92.3407 31.7921 91.5272 32.1659C90.7137 32.5287 89.8012 32.7101 88.7898 32.7101Z" fill="#5D6A09"/>
<path d="M101.586 32.7101C100.487 32.7101 99.47 32.5726 98.5355 32.2978C97.6121 32.012 96.881 31.6822 96.3423 31.3084L97.0184 28.2742C97.6341 28.7799 98.3761 29.1867 99.2446 29.4945C100.124 29.7913 100.927 29.9397 101.652 29.9397C102.235 29.9397 102.708 29.8298 103.07 29.6099C103.444 29.379 103.631 29.1207 103.631 28.8349C103.631 28.4721 103.439 28.1533 103.054 27.8784C102.68 27.5926 101.905 27.3233 100.729 27.0704C99.5634 26.8176 98.6729 26.5152 98.0573 26.1635C97.4417 25.8117 97.0184 25.4104 96.7876 24.9597C96.5677 24.5089 96.4578 24.0252 96.4578 23.5085C96.4578 23.2117 96.5402 22.8434 96.7051 22.4037C96.87 21.953 97.1504 21.5132 97.5461 21.0845C97.9529 20.6447 98.5025 20.2819 99.1951 19.9961C99.8987 19.6993 100.778 19.5509 101.834 19.5509C102.845 19.5509 103.719 19.6608 104.456 19.8807C105.203 20.0896 105.813 20.3094 106.286 20.5403L105.808 23.4591C105.346 23.2062 104.763 22.9479 104.06 22.684C103.356 22.4092 102.576 22.2718 101.718 22.2718C100.993 22.2718 100.492 22.3982 100.218 22.651C99.9427 22.8929 99.8053 23.1403 99.8053 23.3931C99.8053 23.7009 99.9427 23.9428 100.218 24.1187C100.503 24.2836 101.19 24.476 102.279 24.6958C103.136 24.8607 103.917 25.0916 104.62 25.3884C105.335 25.6852 105.907 26.0865 106.335 26.5922C106.764 27.0979 106.979 27.741 106.979 28.5216C106.979 29.3131 106.737 30.0277 106.253 30.6653C105.78 31.2919 105.137 31.7921 104.324 32.1659C103.51 32.5287 102.598 32.7101 101.586 32.7101Z" fill="#5D6A09"/>
<path d="M109.567 32.4132C109.567 32.4132 109.567 32.1329 109.567 31.5722C109.567 31.0006 109.567 30.2585 109.567 29.3461C109.567 28.4226 109.567 27.4222 109.567 26.3448C109.567 25.2565 109.567 24.1846 109.567 23.1293C109.567 22.0739 109.567 21.1284 109.567 20.2929C109.567 19.4574 109.567 18.8418 109.567 18.446C109.567 17.1158 109.556 15.9505 109.534 14.9501C109.523 13.9387 109.474 13.1637 109.386 12.625H113.03C113.03 12.625 113.03 12.9218 113.03 13.5155C113.03 14.1091 113.03 14.8512 113.03 15.7416C113.03 16.6211 113.03 17.5171 113.03 18.4296C113.03 19.331 113.03 20.1116 113.03 20.7712C113.03 21.4198 113.03 21.799 113.03 21.909C113.635 21.1284 114.366 20.5403 115.224 20.1445C116.092 19.7488 116.966 19.5509 117.846 19.5509C120.363 19.5509 121.622 21.2659 121.622 24.6958C121.622 25.1026 121.622 25.6303 121.622 26.2789C121.622 26.9165 121.622 27.5871 121.622 28.2907C121.622 28.9943 121.622 29.6594 121.622 30.286C121.622 30.9126 121.622 31.4238 121.622 31.8196C121.622 32.2154 121.622 32.4132 121.622 32.4132H118.159C118.159 32.4132 118.159 32.1494 118.159 31.6217C118.159 31.083 118.159 30.4289 118.159 29.6594C118.159 28.8788 118.159 28.1203 118.159 27.3837C118.159 26.6362 118.159 26.048 118.159 25.6193C118.159 24.41 118.005 23.602 117.697 23.1952C117.389 22.7885 116.906 22.5851 116.246 22.5851C115.542 22.5851 114.883 22.8709 114.267 23.4426C113.663 24.0032 113.25 24.6024 113.03 25.24V32.4132H109.567Z" fill="#5D6A09"/>
<path d="M130.213 32.7101C128.476 32.7101 127.053 32.1494 125.942 31.0281C124.832 29.8957 124.277 28.2687 124.277 26.147C124.277 24.7288 124.557 23.5305 125.118 22.5521C125.689 21.5737 126.442 20.8316 127.377 20.3259C128.322 19.8092 129.35 19.5509 130.461 19.5509C132.209 19.5509 133.632 20.117 134.732 21.2494C135.842 22.3817 136.397 24.0142 136.397 26.147C136.397 27.5651 136.111 28.7634 135.54 29.7418C134.979 30.7093 134.231 31.4458 133.297 31.9515C132.362 32.4572 131.335 32.7101 130.213 32.7101ZM130.345 29.9397C131.137 29.9397 131.763 29.6044 132.225 28.9338C132.698 28.2522 132.934 27.3233 132.934 26.147C132.934 24.9597 132.714 24.0307 132.274 23.3601C131.835 22.6785 131.192 22.3377 130.345 22.3377C129.543 22.3377 128.905 22.6785 128.432 23.3601C127.971 24.0307 127.74 24.9597 127.74 26.147C127.74 27.3233 127.96 28.2522 128.399 28.9338C128.85 29.6044 129.499 29.9397 130.345 29.9397Z" fill="#5D6A09"/>
<path d="M139.299 38.4651V26.4273C139.299 24.8882 139.266 23.5745 139.2 22.4861C139.145 21.3978 138.975 20.5018 138.689 19.7982H142.086C142.174 19.9851 142.262 20.2545 142.35 20.6063C142.449 20.958 142.526 21.3923 142.581 21.909C143.153 21.2164 143.818 20.6502 144.576 20.2105C145.346 19.7708 146.176 19.5509 147.066 19.5509C147.99 19.5509 148.798 19.8202 149.49 20.3589C150.183 20.8976 150.716 21.6396 151.09 22.5851C151.475 23.5195 151.667 24.5914 151.667 25.8007C151.667 27.2078 151.42 28.4336 150.925 29.478C150.43 30.5114 149.765 31.3084 148.93 31.8691C148.094 32.4297 147.171 32.7101 146.159 32.7101C145.511 32.7101 144.928 32.6111 144.411 32.4132C143.895 32.2264 143.345 31.9625 142.762 31.6217V34.2601C142.762 35.2496 142.784 36.0631 142.828 36.7007C142.883 37.3493 142.966 37.9375 143.076 38.4651H139.299ZM145.335 29.8737C146.093 29.8737 146.758 29.5439 147.33 28.8843C147.913 28.2137 148.204 27.3123 148.204 26.1799C148.204 25.0586 147.995 24.1681 147.577 23.5085C147.16 22.8379 146.577 22.5026 145.829 22.5026C145.28 22.5026 144.719 22.7335 144.147 23.1952C143.576 23.646 143.114 24.3111 142.762 25.1905V28.7029C143.4 29.1757 143.884 29.489 144.213 29.6429C144.543 29.7968 144.917 29.8737 145.335 29.8737Z" fill="#5D6A09"/>
<path d="M154.569 38.4651V26.4273C154.569 24.8882 154.536 23.5745 154.47 22.4861C154.415 21.3978 154.245 20.5018 153.959 19.7982H157.356C157.444 19.9851 157.532 20.2545 157.62 20.6063C157.719 20.958 157.796 21.3923 157.851 21.909C158.422 21.2164 159.088 20.6502 159.846 20.2105C160.616 19.7708 161.446 19.5509 162.336 19.5509C163.26 19.5509 164.068 19.8202 164.76 20.3589C165.453 20.8976 165.986 21.6396 166.36 22.5851C166.744 23.5195 166.937 24.5914 166.937 25.8007C166.937 27.2078 166.69 28.4336 166.195 29.478C165.7 30.5114 165.035 31.3084 164.2 31.8691C163.364 32.4297 162.441 32.7101 161.429 32.7101C160.781 32.7101 160.198 32.6111 159.681 32.4132C159.164 32.2264 158.615 31.9625 158.032 31.6217V34.2601C158.032 35.2496 158.054 36.0631 158.098 36.7007C158.153 37.3493 158.236 37.9375 158.345 38.4651H154.569ZM160.605 29.8737C161.363 29.8737 162.028 29.5439 162.6 28.8843C163.183 28.2137 163.474 27.3123 163.474 26.1799C163.474 25.0586 163.265 24.1681 162.847 23.5085C162.43 22.8379 161.847 22.5026 161.099 22.5026C160.55 22.5026 159.989 22.7335 159.417 23.1952C158.846 23.646 158.384 24.3111 158.032 25.1905V28.7029C158.67 29.1757 159.153 29.489 159.483 29.6429C159.813 29.7968 160.187 29.8737 160.605 29.8737Z" fill="#5D6A09"/>
<path d="M175.33 32.7101C174.242 32.7101 173.231 32.4682 172.296 31.9845C171.362 31.5008 170.603 30.7807 170.021 29.8243C169.449 28.8678 169.163 27.6915 169.163 26.2954C169.163 24.2506 169.713 22.6181 170.812 21.3978C171.922 20.1665 173.429 19.5509 175.33 19.5509C176.716 19.5509 177.782 19.8642 178.529 20.4908C179.277 21.1065 179.794 21.8925 180.08 22.8489C180.376 23.8054 180.525 24.8003 180.525 25.8337C180.525 25.9546 180.525 26.125 180.525 26.3448C180.536 26.5647 180.541 26.7351 180.541 26.856H171.043V24.6299H177.392C177.392 23.7614 177.199 23.1348 176.814 22.75C176.441 22.3542 175.891 22.1563 175.165 22.1563C174.275 22.1563 173.61 22.4642 173.17 23.0798C172.741 23.6954 172.527 24.7288 172.527 26.1799C172.527 27.4882 172.791 28.4446 173.319 29.0492C173.846 29.6429 174.621 29.9397 175.644 29.9397C176.457 29.9397 177.249 29.8463 178.018 29.6594C178.799 29.4725 179.574 29.1537 180.343 28.7029L180.607 31.4898C179.717 31.9405 178.854 32.2538 178.018 32.4297C177.194 32.6166 176.298 32.7101 175.33 32.7101Z" fill="#5D6A09"/>
<path d="M183.559 32.4132V24.8113C183.559 23.602 183.488 22.5741 183.345 21.7276C183.213 20.8701 183.081 20.227 182.949 19.7982H186.346C186.434 20.0621 186.527 20.4578 186.626 20.9855C186.725 21.5132 186.797 21.9255 186.841 22.2223C187.445 21.3538 188.105 20.6942 188.819 20.2435C189.534 19.7817 190.172 19.5509 190.732 19.5509C191.898 19.5509 192.722 20.0126 193.206 20.9361C193.7 21.8485 193.948 22.9369 193.948 24.2011L191.194 24.6299C191.15 24.0692 191.013 23.6185 190.782 23.2777C190.551 22.9369 190.172 22.7665 189.644 22.7665C189.369 22.7665 189.056 22.9204 188.704 23.2282C188.352 23.525 188.022 23.9098 187.715 24.3825C187.407 24.8552 187.176 25.3499 187.022 25.8666V32.4132H183.559Z" fill="#5D6A09"/>
<path d="M12.9225 21.25C13.4932 14.5279 19.1302 9.25 26 9.25H27.875V21.25H12.9225Z" stroke="#5D6A09" stroke-width="2.25"/>
<circle cx="22.625" cy="15.25" r="1.875" fill="#5D6A09"/>
<path d="M18.125 25.75H27.875V30.625C27.875 36.2512 23.6025 40.8796 18.125 41.4425V25.75Z" stroke="#5D6A09" stroke-width="2.25"/>
</svg>
