<svg width="124" height="41" viewBox="0 0 124 41" fill="none" xmlns="http://www.w3.org/2000/svg">
<path d="M45.1 20.5393H36.2893V27.75H35.5V12.8593H36.2893V19.8353H45.1V12.8593H45.8893V27.75H45.1V20.5393Z" fill="#0D5C36"/>
<path d="M59.016 27.75C58.4329 27.75 58.1271 27.4513 58.0987 26.854V26.0646H58.0133C57.7573 26.6193 57.352 27.0815 56.7973 27.4513C56.2427 27.8211 55.496 28.006 54.5573 28.006C53.4338 28.006 52.5662 27.7358 51.9547 27.1953C51.3431 26.6549 51.0373 25.894 51.0373 24.9126C51.0373 24.4433 51.1084 24.0166 51.2507 23.6326C51.3929 23.2486 51.6276 22.9215 51.9547 22.6513C52.296 22.3669 52.7298 22.1535 53.256 22.0113C53.7964 21.8549 54.4578 21.7766 55.24 21.7766H58.0773V20.326C58.0773 19.302 57.8284 18.5482 57.3307 18.0646C56.8329 17.5669 56.0933 17.318 55.112 17.318C53.5902 17.318 52.5378 17.958 51.9547 19.238L51.4213 18.8753C51.72 18.2069 52.1609 17.6735 52.744 17.2753C53.3271 16.8629 54.1236 16.6566 55.1333 16.6566C56.3422 16.6566 57.2596 16.9695 57.8853 17.5953C58.5111 18.2069 58.824 19.0886 58.824 20.2406V27.0886H60.488V27.75H59.016ZM54.6213 27.3446C55.0907 27.3446 55.5316 27.2878 55.944 27.174C56.3707 27.046 56.7404 26.8682 57.0533 26.6406C57.3662 26.4131 57.6151 26.1286 57.8 25.7873C57.9849 25.446 58.0773 25.0478 58.0773 24.5926V22.374H55.24C54.0453 22.374 53.1778 22.5802 52.6373 22.9926C52.0969 23.3909 51.8267 23.9242 51.8267 24.5926V25.19C51.8267 25.9011 52.0827 26.4415 52.5947 26.8113C53.1209 27.1669 53.7964 27.3446 54.6213 27.3446Z" fill="#0D5C36"/>
<path d="M64.8072 27.75V16.9126H65.5538V18.8113H65.6392C65.8667 18.2993 66.2365 17.8584 66.7485 17.4886C67.2605 17.1046 68.0001 16.9126 68.9672 16.9126H69.7778V17.6166H68.8392C68.3983 17.6166 67.9787 17.6735 67.5805 17.7873C67.1823 17.9011 66.8338 18.0718 66.5352 18.2993C66.2365 18.5269 65.9947 18.8113 65.8098 19.1526C65.6392 19.4798 65.5538 19.8638 65.5538 20.3046V27.75H64.8072Z" fill="#0D5C36"/>
<path d="M72.642 16.9126H73.4313L77.058 26.9393H77.122L80.7487 16.9126H81.4953L77.506 27.75H76.6313L72.642 16.9126Z" fill="#0D5C36"/>
<path d="M89.433 28.006C87.9966 28.006 86.8588 27.5224 86.0197 26.5553C85.1948 25.5882 84.7823 24.1802 84.7823 22.3313C84.7823 20.4966 85.1877 19.0958 85.9983 18.1286C86.809 17.1473 87.9254 16.6566 89.3477 16.6566C90.0161 16.6566 90.6206 16.7846 91.161 17.0406C91.7157 17.2966 92.185 17.6593 92.569 18.1286C92.9672 18.598 93.273 19.1669 93.4863 19.8353C93.6997 20.4895 93.8063 21.222 93.8063 22.0326V22.374H85.5717V22.95C85.5717 23.6184 85.657 24.2229 85.8277 24.7633C85.9983 25.3038 86.2472 25.766 86.5743 26.15C86.9157 26.534 87.321 26.8326 87.7903 27.046C88.2739 27.2451 88.8214 27.3446 89.433 27.3446C91.1539 27.3446 92.3414 26.5198 92.9957 24.87L93.5717 25.19C93.2446 26.0433 92.7326 26.726 92.0357 27.238C91.3388 27.75 90.4712 28.006 89.433 28.006ZM89.3477 17.318C88.7503 17.318 88.217 17.4246 87.7477 17.638C87.2926 17.8371 86.9014 18.1286 86.5743 18.5126C86.2472 18.8966 85.9983 19.3589 85.8277 19.8993C85.657 20.4398 85.5717 21.0371 85.5717 21.6913V21.7766H92.9957V21.6486C92.9957 20.9944 92.9032 20.4042 92.7183 19.878C92.5477 19.3375 92.2988 18.8824 91.9717 18.5126C91.6588 18.1286 91.2748 17.8371 90.8197 17.638C90.3788 17.4246 89.8881 17.318 89.3477 17.318Z" fill="#0D5C36"/>
<path d="M101.787 28.006C100.891 28.006 100.109 27.8424 99.4407 27.5153C98.7864 27.1882 98.2104 26.6762 97.7127 25.9793L98.2887 25.5526C98.7722 26.1926 99.2842 26.6549 99.8247 26.9393C100.379 27.2095 101.041 27.3446 101.809 27.3446C102.776 27.3446 103.508 27.1455 104.006 26.7473C104.504 26.3491 104.753 25.7731 104.753 25.0193C104.753 24.294 104.539 23.7535 104.113 23.398C103.7 23.0424 103.06 22.7935 102.193 22.6513L101.275 22.502C100.792 22.4309 100.351 22.3242 99.9527 22.182C99.5687 22.0398 99.2344 21.8549 98.95 21.6273C98.6798 21.3855 98.4664 21.094 98.31 20.7526C98.1678 20.4113 98.0967 19.9989 98.0967 19.5153C98.0967 19.046 98.182 18.6335 98.3527 18.278C98.5376 17.9224 98.7864 17.6238 99.0993 17.382C99.4264 17.1402 99.8033 16.9624 100.23 16.8486C100.671 16.7206 101.14 16.6566 101.638 16.6566C102.548 16.6566 103.288 16.8202 103.857 17.1473C104.426 17.4602 104.895 17.83 105.265 18.2566L104.731 18.7473C104.575 18.5624 104.397 18.3846 104.198 18.214C104.013 18.0433 103.8 17.894 103.558 17.766C103.316 17.6238 103.032 17.5171 102.705 17.446C102.392 17.3606 102.029 17.318 101.617 17.318C100.763 17.318 100.081 17.5029 99.5687 17.8726C99.0709 18.2424 98.822 18.7829 98.822 19.494C98.822 20.2193 99.0353 20.7526 99.462 21.094C99.8887 21.4211 100.536 21.6558 101.403 21.798L102.321 21.9473C103.33 22.1038 104.106 22.4166 104.646 22.886C105.201 23.3411 105.478 24.0309 105.478 24.9553C105.478 25.9224 105.151 26.6762 104.497 27.2166C103.842 27.7429 102.939 28.006 101.787 28.006Z" fill="#0D5C36"/>
<path d="M111.896 27.75C111.284 27.75 110.978 27.4513 110.978 26.854V17.574H109.016V16.9126H110.424C110.665 16.9126 110.822 16.8629 110.893 16.7633C110.978 16.6638 111.021 16.4931 111.021 16.2513V13.8406H111.725V16.9126H114.264V17.574H111.725V27.0886H114.093V27.75H111.896Z" fill="#0D5C36"/>
<path d="M9.75 20.25C9.75 23.7306 11.0974 26.9508 12.691 29.54C14.2835 32.1275 16.1111 34.0674 17.0461 34.9823C17.3047 35.2354 17.6953 35.2354 17.9539 34.9823C18.8889 34.0674 20.7165 32.1275 22.309 29.54C23.9026 26.9508 25.25 23.7306 25.25 20.25C25.25 16.7694 23.9026 13.5492 22.309 10.96C20.7165 8.37246 18.8889 6.43262 17.9539 5.51766C17.6953 5.26465 17.3047 5.26465 17.0461 5.51766C16.1111 6.43262 14.2835 8.37246 12.691 10.96C11.0974 13.5492 9.75 16.7694 9.75 20.25Z" stroke="#0D5C36" stroke-width="0.5"/>
<path d="M18.83 21.4607L18.9261 21.6915L18.83 21.4607C18.6958 21.5166 18.5926 21.628 18.5472 21.7661L17.5 24.9499L16.4528 21.7661C16.4074 21.628 16.3042 21.5166 16.17 21.4607L13.2616 20.25L16.17 19.0393C16.3042 18.9834 16.4074 18.872 16.4528 18.7339L17.5 15.5501L18.5472 18.7339C18.5926 18.872 18.6958 18.9834 18.83 19.0393L18.9221 18.818L18.83 19.0393L21.7384 20.25L18.83 21.4607Z" stroke="#0D5C36" stroke-width="0.5"/>
<path d="M17.5 10.75L20.5 8.25" stroke="#0D5C36" stroke-width="0.5"/>
<path d="M17.5 12.75L21.5 9.75" stroke="#0D5C36" stroke-width="0.5"/>
<path d="M17.5 14.75L22.5 11.25" stroke="#0D5C36" stroke-width="0.5"/>
<path d="M17.5 29.75L14.5 32.25" stroke="#0D5C36" stroke-width="0.5"/>
<path d="M17.5 27.75L13.5 30.75" stroke="#0D5C36" stroke-width="0.5"/>
<path d="M17.5 25.75L12.5 29.25" stroke="#0D5C36" stroke-width="0.5"/>
<path d="M17.5 5.25V15.75" stroke="#0D5C36" stroke-width="0.5"/>
<path d="M17.5 24.75V35.25" stroke="#0D5C36" stroke-width="0.5"/>
</svg>
